<?xml version="1.0" encoding="UTF-8"?>
<svg xmlns="http://www.w3.org/2000/svg" xmlns:xlink="http://www.w3.org/1999/xlink" width="172px" height="216px" viewBox="0 0 172 216">
  <!-- Generator: Sketch 56.3 (81716) - https://sketch.com -->
  <title>Emblem_full-black</title>
  <desc>Created with Sketch.</desc>
  <g id="Page-1" stroke="none" stroke-width="1" fill="none" fill-rule="evenodd">
    <g id="Social-FO-white" transform="translate(-84.000000, -62.000000)" fill="#000000">
      <g id="Emblem_full-black" transform="translate(84.000000, 62.000000)">
        <path d="M96.986,0.225 C97.047,42.056 128.515,79.807 170.986,76.972 C170.989,76.972 170.992,76.97 170.992,76.966 L170.992,0.217 L96.995,0.217 C96.991,0.217 96.986,0.221 96.986,0.225" id="Fill-1"></path>
        <path d="M74.732,127.313 C74.732,103.195 94.284,83.645 118.402,83.645 C142.52,83.645 162.071,103.195 162.071,127.313 C162.071,151.432 142.52,170.983 118.402,170.983 C94.284,170.983 74.732,151.432 74.732,127.313" id="Fill-2"></path>
        <path d="M80.545,0.217 C84.783,84.196 54.605,147.455 0.225,171.525 L0.225,0.217 L80.545,0.217" id="Fill-3"></path>
        <polyline id="Fill-4" points="0.225 215.501 0.225 196.719 12.094 196.719 12.094 200.188 3.882 200.188 3.882 204.824 11.193 204.824 11.193 208.188 3.908 208.188 3.908 215.501 0.225 215.501"></polyline>
        <path d="M21.102,205.964 C20.705,205.884 20.36,205.857 20.042,205.857 C18.241,205.857 16.678,206.731 16.678,209.54 L16.678,215.501 L13.155,215.501 L13.155,202.467 L16.572,202.467 L16.572,204.4 C17.367,202.679 19.168,202.36 20.281,202.36 C20.572,202.36 20.837,202.388 21.102,202.414 L21.102,205.964" id="Fill-5"></path>
        <path d="M25.977,208.003 L29.183,207.526 C29.925,207.42 30.163,207.05 30.163,206.6 C30.163,205.673 29.448,204.904 27.964,204.904 C26.428,204.904 25.58,205.885 25.475,207.023 L22.349,206.361 C22.56,204.321 24.44,202.069 27.937,202.069 C32.071,202.069 33.606,204.4 33.606,207.023 L33.606,213.435 C33.606,214.122 33.686,215.051 33.767,215.5 L30.535,215.5 C30.454,215.156 30.401,214.44 30.401,213.938 C29.74,214.971 28.495,215.871 26.56,215.871 C23.779,215.871 22.083,213.99 22.083,211.95 C22.083,209.619 23.806,208.321 25.977,208.003 M30.163,210.229 L30.163,209.646 L27.223,210.097 C26.322,210.229 25.606,210.732 25.606,211.738 C25.606,212.507 26.163,213.248 27.303,213.248 C28.786,213.248 30.163,212.533 30.163,210.229" id="Fill-6"></path>
        <path d="M39.887,215.501 L36.364,215.501 L36.364,202.467 L39.782,202.467 L39.782,204.082 C40.576,202.731 42.139,202.122 43.543,202.122 C46.775,202.122 48.259,204.428 48.259,207.288 L48.259,215.501 L44.735,215.501 L44.735,207.897 C44.735,206.44 44.02,205.302 42.325,205.302 C40.787,205.302 39.887,206.493 39.887,208.004 L39.887,215.501" id="Fill-7"></path>
        <polyline id="Fill-8" points="58.459 207.95 63.784 215.501 59.466 215.501 56.022 210.521 54.565 212.057 54.565 215.501 51.042 215.501 51.042 196.32 54.565 196.32 54.565 207.314 59.068 202.467 63.678 202.467 58.459 207.95"></polyline>
        <path d="M82.25,211.209 L74.621,211.209 L73.058,215.501 L69.19,215.501 L76.396,196.718 L80.635,196.718 L87.787,215.501 L83.813,215.501 L82.25,211.209 Z M75.839,207.871 L81.032,207.871 L78.435,200.771 L75.839,207.871 L75.839,207.871 Z" id="Fill-9"></path>
        <path d="M92.611,215.501 L89.088,215.501 L89.088,202.467 L92.505,202.467 L92.505,204.082 C93.299,202.731 94.862,202.122 96.267,202.122 C99.499,202.122 100.982,204.428 100.982,207.288 L100.982,215.501 L97.459,215.501 L97.459,207.897 C97.459,206.44 96.743,205.302 95.048,205.302 C93.511,205.302 92.611,206.493 92.611,208.004 L92.611,215.501" id="Fill-10"></path>
        <path d="M116.19,213.143 C116.19,214.017 116.243,214.971 116.296,215.501 L112.931,215.501 C112.878,215.236 112.799,214.6 112.799,213.991 C112.216,215.023 110.892,215.818 109.143,215.818 C105.435,215.818 102.785,212.904 102.785,208.957 C102.785,205.143 105.355,202.148 109.037,202.148 C111.289,202.148 112.349,203.076 112.719,203.765 L112.719,196.321 L116.19,196.321 L116.19,213.143 Z M109.567,212.666 C111.369,212.666 112.773,211.289 112.773,208.931 C112.773,206.6 111.369,205.301 109.567,205.301 C107.766,205.301 106.335,206.626 106.335,208.957 C106.335,211.289 107.713,212.666 109.567,212.666 L109.567,212.666 Z" id="Fill-11"></path>
        <path d="M133.756,196.32 C138.869,196.32 143.425,200.056 143.425,206.123 C143.425,212.163 138.869,215.897 133.756,215.897 C128.67,215.897 124.113,212.163 124.113,206.123 C124.113,200.056 128.67,196.32 133.756,196.32 M133.756,212.348 C136.67,212.348 139.637,210.335 139.637,206.096 C139.637,201.857 136.67,199.844 133.756,199.844 C130.869,199.844 127.902,201.857 127.902,206.096 C127.902,210.335 130.869,212.348 133.756,212.348" id="Fill-12"></path>
        <path d="M148.646,208.003 L151.851,207.526 C152.594,207.42 152.832,207.05 152.832,206.6 C152.832,205.673 152.117,204.904 150.634,204.904 C149.097,204.904 148.249,205.885 148.143,207.023 L145.017,206.361 C145.229,204.321 147.109,202.069 150.606,202.069 C154.74,202.069 156.275,204.4 156.275,207.023 L156.275,213.435 C156.275,214.122 156.355,215.051 156.434,215.5 L153.204,215.5 C153.123,215.156 153.071,214.44 153.071,213.938 C152.409,214.971 151.163,215.871 149.229,215.871 C146.448,215.871 144.752,213.99 144.752,211.95 C144.752,209.619 146.475,208.321 148.646,208.003 M152.832,210.229 L152.832,209.646 L149.891,210.097 C148.991,210.229 148.275,210.732 148.275,211.738 C148.275,212.507 148.832,213.248 149.972,213.248 C151.454,213.248 152.832,212.533 152.832,210.229" id="Fill-13"></path>
        <polyline id="Fill-14" points="166.45 207.95 171.775 215.501 167.456 215.501 164.012 210.521 162.555 212.057 162.555 215.501 159.032 215.501 159.032 196.32 162.555 196.32 162.555 207.314 167.059 202.467 171.669 202.467 166.45 207.95"></polyline>
      </g>
    </g>
  </g>
</svg>
